<svg width="15" height="11" viewBox="0 0 15 11" fill="none" xmlns="http://www.w3.org/2000/svg">
<path d="M4.4369 7.38324C5.6454 7.38324 6.85816 7.38324 8.06666 7.38324C8.21612 7.38324 8.36131 7.39107 8.42537 7.53589C8.48942 7.68463 8.38693 7.77858 8.28018 7.87252C8.02396 8.09954 7.77201 8.33048 7.52433 8.56142C7.18698 8.87848 7.18698 9.28556 7.53287 9.60261C7.9599 9.99403 8.3912 10.3855 8.82677 10.7691C9.1684 11.0744 9.60824 11.0783 9.94559 10.773C11.4658 9.38341 12.9903 7.98994 14.502 6.59256C15.1596 5.98586 15.1682 5.02687 14.5148 4.42408C12.986 3.00712 11.4445 1.60974 9.90716 0.204529C9.60824 -0.0655528 9.15132 -0.069467 8.84813 0.200615C8.38693 0.607696 7.93428 1.0226 7.49017 1.44534C7.18698 1.735 7.19552 2.13816 7.50298 2.42782C7.76347 2.67441 8.03677 2.91709 8.3058 3.15978C8.40401 3.24589 8.48088 3.33983 8.42537 3.469C8.36558 3.606 8.23747 3.62557 8.09228 3.62557C5.69237 3.62166 3.29673 3.62557 0.896824 3.62166C0.303252 3.62166 6.00815e-05 3.89174 6.00815e-05 4.43582C6.00815e-05 5.15995 6.00815e-05 5.88409 6.00815e-05 6.60822C6.00815e-05 7.0975 0.316064 7.38324 0.849852 7.38324C2.04554 7.38324 3.24122 7.38324 4.4369 7.38324Z" fill="white"/>
</svg>
