<svg width="15" height="11" viewBox="0 0 15 11" fill="none" xmlns="http://www.w3.org/2000/svg">
<path d="M10.5632 7.38324C9.35472 7.38324 8.14196 7.38324 6.93346 7.38324C6.784 7.38324 6.63881 7.39107 6.57476 7.53589C6.5107 7.68463 6.61319 7.77858 6.71995 7.87252C6.97616 8.09954 7.22811 8.33048 7.47579 8.56142C7.81314 8.87848 7.81314 9.28556 7.46725 9.60261C7.04022 9.99403 6.60892 10.3855 6.17335 10.7691C5.83172 11.0744 5.39188 11.0783 5.05453 10.773C3.5343 9.38341 2.0098 7.98994 0.498118 6.59256C-0.159509 5.98586 -0.168049 5.02687 0.485307 4.42408C2.01407 3.00712 3.55565 1.60974 5.09296 0.204529C5.39188 -0.0655528 5.8488 -0.069467 6.152 0.200615C6.61319 0.607696 7.06584 1.0226 7.50995 1.44534C7.81314 1.735 7.8046 2.13816 7.49714 2.42782C7.23665 2.67441 6.96335 2.91709 6.69432 3.15978C6.59611 3.24589 6.51924 3.33983 6.57476 3.469C6.63454 3.606 6.76265 3.62557 6.90784 3.62557C9.30775 3.62166 11.7034 3.62557 14.1033 3.62166C14.6969 3.62166 15.0001 3.89174 15.0001 4.43582C15.0001 5.15995 15.0001 5.88409 15.0001 6.60822C15.0001 7.0975 14.6841 7.38324 14.1503 7.38324C12.9546 7.38324 11.7589 7.38324 10.5632 7.38324Z" fill="white"/>
</svg>
