<svg width="701" height="701" viewBox="0 0 701 701" fill="none" xmlns="http://www.w3.org/2000/svg">
<path d="M237.086 681.68C205.457 672.638 176.704 658.071 149.981 639.151C112.263 612.529 80.1271 580.381 55.264 541.536C35.6441 511.062 21.2675 478.245 11.7958 443.251C2.66242 409.261 -0.720314 374.937 0.12537 339.942C1.14019 302.939 7.90566 267.108 20.9292 232.448C43.4244 172.674 78.4357 121.94 128.162 81.086C157.592 56.9752 190.404 38.2223 225.754 24.4925C232.012 21.981 238.439 19.302 245.205 18.13C246.558 17.4602 248.249 16.9579 249.264 17.7951C253.154 20.809 252.985 20.8089 257.383 19.4695C273.281 14.6138 289.18 10.5953 305.925 10.9302C310.83 11.0976 315.227 9.25585 319.963 8.5861C328.251 8.41867 336.539 8.25123 344.995 7.91636C350.746 7.24661 356.666 7.07918 362.416 7.91636C461.531 10.9302 544.069 49.7754 611.386 121.103C613.077 122.778 615.783 123.782 615.953 126.796C616.629 127.633 616.629 128.303 615.953 129.14C610.202 130.647 607.834 125.959 604.959 122.945C580.603 97.3273 552.695 76.2303 521.743 58.9844C499.756 46.7616 476.415 37.8874 452.228 31.19C420.092 22.3159 387.28 17.6277 353.791 18.7997C327.913 19.6369 302.373 23.4879 277.002 29.0133C242.329 36.3805 210.532 50.2777 180.425 68.026C134.758 94.9832 97.2099 130.815 68.4567 175.185C48.8368 205.491 34.9676 238.309 26.1724 273.135C21.6057 291.218 19.5761 309.804 17.5465 328.389C14.6711 354.342 17.0391 380.127 19.7452 405.912C22.1132 427.846 29.386 448.776 36.6589 469.706C51.0356 510.727 74.3764 546.391 102.453 579.041C124.441 604.659 151.165 625.421 180.425 642.667C198.354 653.383 217.466 661.587 236.579 669.624C239.285 671.634 243.513 672.638 242.16 677.326C241.484 679.838 241.315 683.354 237.086 681.68Z" fill="#EFF5F2"/>
<path d="M696.969 370.248C696.8 401.559 692.91 432.032 683.1 462.004C666.863 511.397 641.661 555.266 605.974 593.274C596.502 603.32 586.354 612.529 575.698 621.235C572.654 620.566 572.654 620.566 574.514 617.719C553.879 631.616 534.936 647.355 511.764 656.062C503.984 660.583 495.527 663.597 487.409 667.448C485.717 668.118 484.026 668.285 482.335 668.118C480.981 667.95 479.797 667.615 478.783 666.611C478.614 661.755 482.504 660.918 485.717 659.578C512.103 648.025 536.289 632.956 558.953 615.543C561.829 613.701 563.689 610.352 567.41 609.682C576.713 604.994 583.986 597.962 591.597 591.264C595.995 587.413 590.751 582.725 593.627 579.041C604.959 565.479 616.629 552.419 626.777 538.02C648.089 508.216 664.157 475.901 674.643 440.907C679.379 425.335 681.916 409.596 684.96 393.69C686.314 386.992 690.035 380.797 690.373 373.765C692.233 371.588 693.756 369.411 696.969 370.248Z" fill="#EFF5F2"/>
<path d="M494.343 671.131C468.296 682.852 440.896 690.889 412.819 695.577C377.808 701.437 342.458 703.279 307.278 697.419C301.527 696.414 295.438 696.917 289.857 694.74C288.165 693.568 286.136 694.238 284.275 693.903C279.37 693.066 276.664 690.889 279.709 685.698C283.091 683.522 286.643 684.191 290.364 685.029C313.198 690.052 336.2 692.731 359.541 692.563C382.036 692.396 404.193 689.382 426.181 685.029C433.454 683.689 441.403 684.359 447.831 679.336C449.522 678.331 451.382 677.829 453.243 677.661C458.655 678.499 463.222 675.15 468.296 674.313C475.569 672.638 481.996 668.787 489.1 666.778C491.806 665.271 494.512 664.434 497.557 665.104C502.631 670.127 495.02 668.955 494.343 671.131Z" fill="#EFF5F2"/>
<path d="M320.301 8.58611C314.043 12.9395 306.77 11.2651 300.005 12.4371C284.444 14.9487 268.884 18.13 253.831 22.9856C251.801 23.6554 249.433 23.3205 246.727 23.6554C247.573 21.3113 253.492 17.7951 245.712 18.2974C255.353 12.772 266.178 11.0977 276.664 8.58611C309.646 0.884046 343.135 -1.12519 376.962 0.549174C393.199 1.21892 409.437 3.22815 425.335 8.25124C382.375 1.72123 339.583 1.21892 297.468 9.75817C304.741 12.2697 312.352 6.91175 320.301 8.58611Z" fill="#EFF5F2"/>
<path d="M697.815 296.074C698.491 305.116 701.705 313.822 700.859 323.199C700.521 326.213 701.029 329.227 697.307 332.24C698.491 318.008 695.278 305.451 692.572 292.558C688.851 287.367 688.512 281.005 687.159 275.312C677.857 235.797 662.127 199.296 639.294 165.641C636.926 162.293 634.05 158.944 634.219 154.423C634.727 153.084 635.573 152.079 636.926 151.912C647.074 162.962 654.347 176.022 661.281 189.082C674.136 212.858 684.453 237.639 690.88 263.759C693.586 274.475 695.616 285.358 697.815 296.074Z" fill="#EFF5F2"/>
<path d="M494.343 671.131C493.667 668.285 499.756 669.624 497.557 665.941C500.432 659.076 507.705 659.243 512.948 656.397C514.64 655.56 516.838 656.062 518.192 654.89C515.993 655.727 513.794 656.564 511.426 654.89C525.803 648.862 538.488 639.988 551.511 631.449C558.953 626.593 566.226 621.57 573.499 616.547C576.036 617.384 570.624 621.905 575.698 621.403C551.342 642.165 523.942 658.574 494.343 671.131Z" fill="#EFF5F2"/>
<path d="M237.086 681.68C245.036 678.331 240.638 674.982 237.086 671.634C238.101 670.462 239.454 669.959 240.807 670.462C247.403 673.141 254.507 674.48 261.442 676.657C263.133 677.159 264.148 678.331 264.825 680.005C264.825 680.34 264.994 680.675 264.825 680.843C260.934 683.689 260.596 684.024 260.596 688.545C252.816 685.698 243.852 687.205 237.086 681.68Z" fill="#EFF5F2"/>
<path d="M636.926 152.079C636.587 153.251 635.911 154.088 634.558 154.256C625.763 150.74 623.564 141.196 617.137 135.503C615.445 133.996 614.43 131.987 615.953 129.643C616.122 128.638 616.291 127.801 616.46 126.796C624.748 133.996 630.668 143.037 636.926 152.079Z" fill="#EFF5F2"/>
<path d="M260.427 688.377C258.736 685.698 257.044 683.019 255.184 679.838C258.566 680.34 261.611 680.675 264.486 681.01C267.531 679.001 269.73 680.173 271.759 682.517C273.451 686.033 272.097 688.712 269.222 691.056C265.839 691.893 263.133 690.219 260.427 688.377Z" fill="#EFF5F2"/>
<path d="M696.969 370.248C695.447 371.421 693.925 372.425 692.402 373.597C689.696 370.918 689.865 368.072 691.895 365.225C693.248 362.044 689.865 355.681 694.77 355.681C699.675 355.681 696.293 362.044 697.477 365.225C697.307 366.732 697.138 368.407 696.969 370.248Z" fill="#EFF5F2"/>
<path d="M269.222 691.224C269.73 688.712 270.237 686.033 270.913 683.522C272.774 681.68 274.634 683.019 276.495 683.522C278.017 684.191 279.37 685.029 279.878 686.703C278.355 695.242 286.981 691.391 289.688 694.572C282.415 696.414 276.495 690.387 269.222 691.224Z" fill="#EFF5F2"/>
<path d="M362.755 8.0838C357.004 8.0838 351.084 8.0838 345.334 8.0838C351.084 5.57225 356.835 5.73969 362.755 8.0838Z" fill="#EFF5F2"/>
<path d="M411.635 683.354C434.638 679.838 456.287 670.964 479.121 666.443C480.305 666.443 481.489 666.611 482.673 666.611C482.842 671.299 478.275 670.629 475.738 672.136C473.201 673.643 470.157 674.145 467.45 675.317C462.884 676.489 458.486 678.164 453.919 679.671C452.059 679.838 450.199 679.838 448.507 680.006C447.323 682.35 444.955 682.685 442.926 683.019C432.608 684.359 422.798 687.373 412.481 688.545C408.929 688.88 405.377 689.382 402.671 685.866C405.546 682.685 408.929 684.861 411.635 683.354Z" fill="#EFF5F2"/>
<path d="M585.677 591.097C588.552 587.246 591.597 583.562 595.656 580.716C595.318 581.553 594.641 582.725 594.811 583.06C600.73 590.929 592.274 593.106 588.891 596.622C583.14 602.315 577.22 608.51 568.763 610.854C567.58 607.171 570.117 605.329 572.654 603.487C577.389 599.804 581.956 595.785 585.677 591.097Z" fill="#EFF5F2"/>
<path d="M585.677 591.097C585.677 596.622 580.603 598.297 577.728 601.645C574.852 604.827 570.117 606.333 568.763 610.854C564.873 610.854 565.212 616.547 561.321 616.212C559.63 616.045 558.108 615.877 554.894 615.71C565.719 606.668 574.852 597.794 585.677 591.097Z" fill="#EFF5F2"/>
<path d="M511.426 654.723C513.625 654.723 515.824 654.723 518.361 654.723C511.595 659.578 503.477 660.583 497.557 665.941C494.851 666.611 492.144 667.448 489.438 668.118C488.593 667.448 487.409 667.28 487.409 665.941C494.512 660.583 503.646 659.076 511.426 654.723Z" fill="#EFF5F2"/>
<path d="M487.24 665.941C487.916 666.611 488.593 667.448 489.269 668.118C482.504 670.797 475.569 673.475 468.804 675.987C467.958 675.652 466.943 675.485 466.774 674.48C471.002 669.792 478.614 671.969 482.504 666.611C484.195 666.276 485.717 666.108 487.24 665.941Z" fill="#EFF5F2"/>
<path d="M411.635 683.354C409.267 684.024 407.069 684.694 402.333 686.033C419.754 687.708 433.792 681.345 448.507 679.671C447.154 686.536 440.558 685.196 436.498 685.866C406.223 691.559 375.778 695.912 344.657 694.238C325.883 693.233 307.278 692.061 289.011 687.373C286.136 686.703 282.922 686.87 279.878 686.703C278.355 686.536 276.833 686.368 276.157 684.694C287.658 675.652 299.667 683.187 311.337 684.024C317.595 684.359 324.022 685.698 330.28 686.033C350.577 686.87 370.873 687.708 391.17 686.033C398.104 685.698 404.362 681.178 411.635 683.354Z" fill="#EFF5F2"/>
<path d="M466.774 674.48C467.45 674.982 468.127 675.485 468.804 675.987C463.729 676.824 459.501 681.345 453.919 679.503C456.795 674.313 462.545 676.322 466.774 674.48Z" fill="#EFF5F2"/>
<path d="M370.535 691.224C372.734 691.559 374.933 691.726 377.131 692.061C377.131 692.396 377.131 692.563 377.131 692.898C363.77 692.898 350.408 692.898 337.046 692.898C336.708 692.898 336.369 692.898 336.2 692.898C335.016 691.559 336.877 692.061 337.046 691.559C348.209 690.052 359.372 690.387 370.535 691.224Z" fill="#EFF5F2"/>
<path d="M370.535 691.224C359.372 691.224 348.209 691.391 337.046 691.391C348.209 688.21 359.372 689.047 370.535 691.224Z" fill="#EFF5F2"/>
</svg>
