<svg width="18" height="15" viewBox="0 0 18 15" fill="none" xmlns="http://www.w3.org/2000/svg">
<path d="M15.4283 6.00663C15.4283 7.82215 15.4283 9.63767 15.4283 11.4532C15.4283 11.7377 15.2436 11.9473 14.9705 11.9847C14.5409 12.0446 14.2638 11.9211 14.1674 11.6291C14.1594 11.6067 14.1474 11.5805 14.1474 11.558C14.1594 11.1986 13.9305 11.0452 13.5933 10.9516C12.1999 10.566 10.8066 10.1655 9.41325 9.77618C8.80291 9.60398 8.26485 9.735 7.81111 10.1543C7.62239 10.3264 7.42162 10.4762 7.1807 10.5735C6.79523 10.727 6.43786 10.5136 6.43786 10.1206C6.43786 7.89327 6.43786 5.66598 6.43786 3.43869C6.43786 3.13923 6.57839 2.97452 6.89962 2.88468C8.07211 2.55901 9.24059 2.23708 10.4131 1.91515C11.5053 1.61194 12.6015 1.31248 13.6977 1.00926C13.9988 0.926911 14.1273 0.777177 14.1514 0.48894C14.1755 0.196959 14.3843 0.00979184 14.6975 0.00230515C14.9223 -0.00518154 15.1432 -0.00518154 15.3038 0.178242C15.4082 0.294286 15.4363 0.429046 15.4363 0.57878C15.4283 2.39056 15.4283 4.19859 15.4283 6.00663Z" fill="url(#paint0_linear)"/>
<path d="M5.14892 8.89275C5.14892 10.7008 5.14892 12.5126 5.14892 14.3206C5.14892 14.8297 4.61889 15.1479 4.14106 14.9308C3.92825 14.8334 3.8118 14.6687 3.75559 14.4554C3.4183 13.1227 3.07699 11.7901 2.7397 10.4575C2.62727 10.0157 2.51885 9.57403 2.40642 9.13232C2.27793 8.63071 1.89246 8.40985 1.39455 8.28258C0.466998 8.05049 0.00121457 7.47776 0.00924531 6.57936C0.0132607 6.15636 -0.0429545 5.72962 0.081522 5.31411C0.314414 4.55795 0.828381 4.04886 1.63547 3.83923C2.63931 3.5772 3.6552 3.36008 4.66306 3.12425C4.96823 3.05313 5.14491 3.19912 5.14491 3.50607C5.14892 5.29914 5.14892 7.09594 5.14892 8.89275Z" fill="url(#paint1_linear)"/>
<path d="M16.7172 5.90556C16.7172 5.54245 16.7172 5.18309 16.7172 4.81999C16.7172 4.74512 16.7252 4.67025 16.7413 4.59913C16.8296 4.25849 17.0706 4.18362 17.3516 4.41196C17.7612 4.74887 17.9299 5.19807 17.9861 5.6847C18.0383 6.17134 17.9459 6.63925 17.6729 7.06599C17.5685 7.2307 17.436 7.36546 17.2633 7.47028C17.0786 7.57883 16.918 7.54514 16.8096 7.36546C16.7453 7.26065 16.7212 7.1446 16.7212 7.02482C16.7172 6.65423 16.7172 6.27989 16.7172 5.90556Z" fill="url(#paint2_linear)"/>
<defs>
<linearGradient id="paint0_linear" x1="9" y1="0" x2="23.5" y2="14.5" gradientUnits="userSpaceOnUse">
<stop stop-color="#32AB77"/>
<stop offset="1" stop-color="#1F983A"/>
</linearGradient>
<linearGradient id="paint1_linear" x1="9" y1="0" x2="23.5" y2="14.5" gradientUnits="userSpaceOnUse">
<stop stop-color="#32AB77"/>
<stop offset="1" stop-color="#1F983A"/>
</linearGradient>
<linearGradient id="paint2_linear" x1="9" y1="0" x2="23.5" y2="14.5" gradientUnits="userSpaceOnUse">
<stop stop-color="#32AB77"/>
<stop offset="1" stop-color="#1F983A"/>
</linearGradient>
</defs>
</svg>
