<svg width="50" height="50" viewBox="0 0 50 50" fill="none" xmlns="http://www.w3.org/2000/svg">
<path d="M16.9106 48.622C14.6546 47.9771 12.6037 46.938 10.6976 45.5885C8.00735 43.6896 5.7152 41.3966 3.9418 38.6259C2.54238 36.4524 1.51694 34.1116 0.841356 31.6156C0.189902 29.1912 -0.0513776 26.743 0.00894223 24.247C0.081326 21.6076 0.563885 19.0519 1.49281 16.5798C3.09732 12.3162 5.59456 8.69761 9.14137 5.7836C11.2405 4.06385 13.5809 2.72627 16.1023 1.74697C16.5486 1.56783 17.0071 1.37675 17.4896 1.29315C17.5861 1.24538 17.7068 1.20955 17.7792 1.26927C18.0566 1.48423 18.0446 1.48423 18.3582 1.38869C19.4923 1.04235 20.6263 0.75573 21.8206 0.779616C22.1705 0.791558 22.4841 0.660189 22.8219 0.612418C23.413 0.600476 24.0042 0.588533 24.6074 0.564648C25.0175 0.516877 25.4398 0.504934 25.85 0.564648C32.9194 0.779616 38.8067 3.55032 43.6081 8.63789C43.7288 8.75732 43.9218 8.82898 43.9338 9.04395C43.9821 9.10366 43.9821 9.15143 43.9338 9.21114C43.5237 9.31863 43.3548 8.98423 43.1497 8.76926C41.4125 6.94203 39.4219 5.43726 37.2142 4.20716C35.6459 3.33535 33.9811 2.70239 32.2559 2.22468C29.9638 1.59172 27.6234 1.25732 25.2347 1.34092C23.3889 1.40063 21.5673 1.67532 19.7577 2.06942C17.2845 2.5949 15.0165 3.58614 12.8691 4.85207C9.61186 6.77484 6.93366 9.33057 4.88279 12.4954C3.48337 14.657 2.49412 16.9978 1.86679 19.4818C1.54107 20.7716 1.3963 22.0973 1.25153 23.4229C1.04644 25.274 1.21534 27.1132 1.40836 28.9524C1.57726 30.5169 2.09601 32.0097 2.61476 33.5025C3.6402 36.4285 5.30502 38.9723 7.30764 41.3011C8.87596 43.1283 10.7821 44.6092 12.8691 45.8393C14.1479 46.6036 15.5111 47.1888 16.8744 47.7621C17.0674 47.9054 17.369 47.9771 17.2725 48.3115C17.2242 48.4906 17.2122 48.7414 16.9106 48.622Z" fill="#EFF5F2"/>
<path d="M49.7125 26.4086C49.7004 28.6419 49.423 30.8154 48.7232 32.9532C47.5651 36.4763 45.7676 39.6052 43.2221 42.3162C42.5465 43.0328 41.8227 43.6896 41.0626 44.3107C40.8455 44.2629 40.8455 44.2629 40.9782 44.0599C39.5064 45.0511 38.1552 46.1737 36.5024 46.7947C35.9475 47.1172 35.3443 47.3322 34.7652 47.6068C34.6446 47.6546 34.524 47.6665 34.4033 47.6546C34.3068 47.6427 34.2224 47.6188 34.15 47.5471C34.1379 47.2008 34.4154 47.1411 34.6446 47.0455C36.5266 46.2215 38.2517 45.1466 39.8683 43.9046C40.0734 43.7732 40.2061 43.5344 40.4715 43.4866C41.135 43.1522 41.6538 42.6506 42.1966 42.1729C42.5103 41.8982 42.1363 41.5638 42.3414 41.3011C43.1497 40.3337 43.9821 39.4022 44.7059 38.3751C46.226 36.2494 47.3721 33.9444 48.12 31.4484C48.4578 30.3377 48.6388 29.2151 48.856 28.0806C48.9525 27.6029 49.2179 27.161 49.242 26.6594C49.3747 26.5041 49.4833 26.3489 49.7125 26.4086Z" fill="#EFF5F2"/>
<path d="M35.2599 47.8696C33.402 48.7056 31.4476 49.2788 29.445 49.6132C26.9478 50.0312 24.4264 50.1626 21.9171 49.7446C21.5069 49.6729 21.0726 49.7087 20.6745 49.5535C20.5539 49.4699 20.4091 49.5177 20.2764 49.4938C19.9266 49.4341 19.7335 49.2788 19.9507 48.9086C20.192 48.7533 20.4453 48.8011 20.7107 48.8608C22.3393 49.2191 23.98 49.4102 25.6449 49.3982C27.2494 49.3863 28.8298 49.1713 30.3981 48.8608C30.9168 48.7653 31.4838 48.813 31.9423 48.4548C32.0629 48.3831 32.1956 48.3473 32.3283 48.3353C32.7144 48.3951 33.0401 48.1562 33.402 48.0965C33.9208 47.9771 34.3792 47.7024 34.8859 47.5591C35.0789 47.4516 35.2719 47.3919 35.4891 47.4396C35.851 47.7979 35.3081 47.7143 35.2599 47.8696Z" fill="#EFF5F2"/>
<path d="M22.846 0.612419C22.3997 0.922928 21.8809 0.803502 21.3984 0.8871C20.2885 1.06624 19.1786 1.29315 18.1049 1.63949C17.9601 1.68726 17.7912 1.66337 17.5982 1.68726C17.6585 1.52006 18.0808 1.26927 17.5258 1.30509C18.2135 0.910986 18.9856 0.791559 19.7335 0.612419C22.086 0.0630561 24.4747 -0.080256 26.8875 0.0391707C28.0456 0.0869414 29.2037 0.230253 30.3378 0.588534C27.2735 0.122769 24.2213 0.0869415 21.2174 0.696018C21.7362 0.875158 22.279 0.492992 22.846 0.612419Z" fill="#EFF5F2"/>
<path d="M49.7728 21.118C49.8211 21.7629 50.0503 22.3839 49.99 23.0527C49.9658 23.2677 50.002 23.4826 49.7366 23.6976C49.8211 22.6825 49.5919 21.7868 49.3988 20.8672C49.1334 20.497 49.1093 20.0431 49.0128 19.6371C48.3493 16.8186 47.2273 14.2151 45.5987 11.8146C45.4298 11.5758 45.2247 11.3369 45.2368 11.0145C45.273 10.9189 45.3333 10.8473 45.4298 10.8353C46.1536 11.6236 46.6724 12.5551 47.167 13.4866C48.0839 15.1825 48.8198 16.95 49.2782 18.8131C49.4712 19.5774 49.616 20.3537 49.7728 21.118Z" fill="#EFF5F2"/>
<path d="M35.2599 47.8696C35.2116 47.6665 35.6459 47.7621 35.4891 47.4993C35.6942 47.0097 36.2129 47.0216 36.5869 46.8186C36.7075 46.7589 36.8644 46.7947 36.9609 46.7111C36.804 46.7708 36.6472 46.8306 36.4783 46.7111C37.5038 46.2812 38.4086 45.6482 39.3375 45.0392C39.8683 44.6928 40.387 44.3345 40.9058 43.9763C41.0868 44.036 40.7007 44.3584 41.0626 44.3226C39.3254 45.8035 37.3711 46.9739 35.2599 47.8696Z" fill="#EFF5F2"/>
<path d="M16.9106 48.622C17.4776 48.3831 17.1639 48.1443 16.9106 47.9054C16.9829 47.8218 17.0795 47.786 17.176 47.8218C17.6465 48.0129 18.1532 48.1084 18.6478 48.2637C18.7684 48.2995 18.8408 48.3831 18.8891 48.5025C18.8891 48.5264 18.9011 48.5503 18.8891 48.5622C18.6116 48.7653 18.5875 48.7892 18.5875 49.1116C18.0325 48.9086 17.3931 49.0161 16.9106 48.622Z" fill="#EFF5F2"/>
<path d="M45.4298 10.8473C45.4057 10.9309 45.3574 10.9906 45.2609 11.0025C44.6336 10.7517 44.4767 10.071 44.0183 9.66497C43.8977 9.55748 43.8253 9.41417 43.9339 9.24697C43.9459 9.17532 43.958 9.1156 43.97 9.04395C44.5612 9.55748 44.9834 10.2024 45.4298 10.8473Z" fill="#EFF5F2"/>
<path d="M18.5754 49.0997C18.4548 48.9086 18.3341 48.7175 18.2014 48.4906C18.4427 48.5264 18.6598 48.5503 18.8649 48.5742C19.0821 48.4309 19.2389 48.5145 19.3837 48.6817C19.5043 48.9325 19.4078 49.1236 19.2027 49.2907C18.9614 49.3505 18.7684 49.231 18.5754 49.0997Z" fill="#EFF5F2"/>
<path d="M49.7125 26.4086C49.6039 26.4922 49.4953 26.5638 49.3868 26.6474C49.1937 26.4564 49.2058 26.2533 49.3506 26.0503C49.4471 25.8234 49.2058 25.3696 49.5557 25.3696C49.9055 25.3696 49.6642 25.8234 49.7487 26.0503C49.7366 26.1578 49.7246 26.2772 49.7125 26.4086Z" fill="#EFF5F2"/>
<path d="M19.2027 49.3027C19.2389 49.1236 19.2751 48.9325 19.3234 48.7533C19.4561 48.622 19.5888 48.7175 19.7215 48.7533C19.83 48.8011 19.9266 48.8608 19.9627 48.9802C19.8542 49.5893 20.4694 49.3146 20.6625 49.5415C20.1437 49.6729 19.7215 49.243 19.2027 49.3027Z" fill="#EFF5F2"/>
<path d="M25.8741 0.57659C25.4639 0.57659 25.0417 0.57659 24.6315 0.57659C25.0417 0.39745 25.4519 0.409393 25.8741 0.57659Z" fill="#EFF5F2"/>
<path d="M29.3606 48.7414C31.0013 48.4906 32.5455 47.8576 34.1741 47.5352C34.2585 47.5352 34.343 47.5471 34.4274 47.5471C34.4395 47.8815 34.1138 47.8337 33.9328 47.9412C33.7519 48.0487 33.5347 48.0845 33.3417 48.1681C33.016 48.2517 32.7023 48.3712 32.3766 48.4786C32.2439 48.4906 32.1112 48.4906 31.9905 48.5025C31.9061 48.6697 31.7372 48.6936 31.5924 48.7175C30.8565 48.813 30.1568 49.028 29.4209 49.1116C29.1676 49.1355 28.9142 49.1713 28.7212 48.9205C28.9263 48.6936 29.1676 48.8489 29.3606 48.7414Z" fill="#EFF5F2"/>
<path d="M41.7744 42.161C41.9795 41.8863 42.1966 41.6236 42.4862 41.4205C42.4621 41.4802 42.4138 41.5638 42.4259 41.5877C42.8481 42.149 42.2449 42.3043 42.0036 42.5551C41.5934 42.9611 41.1712 43.403 40.568 43.5702C40.4836 43.3075 40.6645 43.1761 40.8455 43.0447C41.1833 42.782 41.509 42.4954 41.7744 42.161Z" fill="#EFF5F2"/>
<path d="M41.7744 42.161C41.7744 42.5551 41.4125 42.6745 41.2074 42.9134C41.0023 43.1403 40.6645 43.2478 40.568 43.5702C40.2905 43.5702 40.3147 43.9763 40.0372 43.9524C39.9165 43.9404 39.808 43.9285 39.5788 43.9165C40.3509 43.2716 41.0023 42.6387 41.7744 42.161Z" fill="#EFF5F2"/>
<path d="M36.4783 46.6992C36.6351 46.6992 36.792 46.6992 36.9729 46.6992C36.4904 47.0455 35.9113 47.1172 35.4891 47.4993C35.2961 47.5471 35.103 47.6068 34.91 47.6546C34.8497 47.6068 34.7652 47.5949 34.7652 47.4993C35.2719 47.1172 35.9234 47.0097 36.4783 46.6992Z" fill="#EFF5F2"/>
<path d="M34.7532 47.4993C34.8014 47.5471 34.8497 47.6068 34.8979 47.6546C34.4154 47.8457 33.9208 48.0368 33.4382 48.2159C33.3779 48.192 33.3055 48.1801 33.2934 48.1084C33.595 47.774 34.1379 47.9293 34.4154 47.5471C34.536 47.5232 34.6446 47.5113 34.7532 47.4993Z" fill="#EFF5F2"/>
<path d="M29.3606 48.7414C29.1917 48.7892 29.0349 48.8369 28.6971 48.9325C29.9396 49.0519 30.941 48.5981 31.9905 48.4786C31.894 48.9683 31.4235 48.8728 31.134 48.9205C28.9745 49.3266 26.803 49.6371 24.5832 49.5177C23.2441 49.446 21.9171 49.3624 20.6142 49.028C20.4091 48.9802 20.1799 48.9922 19.9627 48.9802C19.8542 48.9683 19.7456 48.9564 19.6973 48.8369C20.5177 48.192 21.3742 48.7294 22.2066 48.7892C22.653 48.813 23.1114 48.9086 23.5578 48.9325C25.0055 48.9922 26.4532 49.0519 27.9008 48.9325C28.3955 48.9086 28.8418 48.5861 29.3606 48.7414Z" fill="#EFF5F2"/>
<path d="M33.2934 48.1084C33.3417 48.1443 33.3899 48.1801 33.4382 48.2159C33.0763 48.2756 32.7747 48.5981 32.3766 48.4667C32.5817 48.0965 32.9918 48.2398 33.2934 48.1084Z" fill="#EFF5F2"/>
<path d="M26.429 49.3027C26.5859 49.3266 26.7427 49.3385 26.8995 49.3624C26.8995 49.3863 26.8995 49.3982 26.8995 49.4221C25.9465 49.4221 24.9934 49.4221 24.0404 49.4221C24.0162 49.4221 23.9921 49.4221 23.98 49.4221C23.8956 49.3266 24.0283 49.3624 24.0404 49.3266C24.8366 49.2191 25.6328 49.243 26.429 49.3027Z" fill="#EFF5F2"/>
<path d="M26.429 49.3027C25.6328 49.3027 24.8366 49.3146 24.0404 49.3146C24.8366 49.0877 25.6328 49.1474 26.429 49.3027Z" fill="#EFF5F2"/>
</svg>
