<svg width="223" height="237" viewBox="0 0 223 237" fill="none" xmlns="http://www.w3.org/2000/svg">
<path d="M20.5419 125.985C21.6746 128.196 26.1676 129.506 33.2592 129.761M33.2592 129.761C50.1871 130.434 81.9558 125.334 117.576 115.79C153.196 106.245 183.213 94.6102 197.582 85.7312C203.596 81.9645 206.877 78.7506 206.707 76.102M33.2592 129.761L20.329 105.028C19.8916 104.068 18.9501 103.242 17.8073 103.01C16.6645 102.777 15.6115 102.88 14.5251 103.53C12.0613 105.088 11.2676 108.175 12.4901 110.721L20.4188 126.197L38.9573 163.796L39.3947 164.757M196.846 71.56C180.96 70.0694 147.376 75.1168 109.404 85.2915C71.4315 95.4661 39.8236 107.887 26.8108 117.121M33.7979 152.606C30.3608 156.581 28.6603 160.988 30.0073 166.015C30.1869 166.685 30.4114 167.523 30.7591 168.148C33.1142 172.905 37.8883 175.937 45.9213 177.017M45.9213 177.017C51.7585 177.968 59.3093 177.92 68.7864 176.997C69.5034 176.985 70.1755 176.804 70.8924 176.792C87.7407 175.151 108.979 171.077 130.822 165.224C152.664 159.371 172.926 152.326 188.506 145.277C189.133 144.93 189.805 144.75 190.432 144.402C199.101 140.463 205.619 136.561 210.244 132.987C216.616 127.867 219.28 123.023 218.941 117.725C218.929 117.01 218.705 116.172 218.525 115.502C217.178 110.475 213.502 107.508 208.538 105.785M45.9213 177.017L51.9439 189.413M39.6858 164.499C44.8205 171.565 83.323 168.073 128.352 156.007C173.381 143.942 208.471 127.715 209.385 119.028M51.9439 189.413C48.4618 193.219 46.7614 197.626 48.1084 202.653C48.288 203.324 48.5125 204.162 48.8601 204.787C51.0473 209.589 55.9444 212.408 63.9775 213.488C69.2208 214.238 75.6736 214.126 83.5937 213.44M51.9439 189.413L57.8318 201.305C60.1971 204.084 68.1852 204.997 80.0262 204.159M83.5937 213.44C83.7617 213.395 84.0978 213.305 84.3107 213.428C92.7348 212.608 102.29 211.304 112.551 209.273C121.636 207.558 131.09 205.204 140.667 202.638M83.5937 213.44L91.828 234.762M140.667 202.638C150.244 200.072 159.563 197.215 168.333 194.327C178.235 190.955 187.375 187.429 194.867 183.804C195.035 183.759 195.203 183.714 195.495 183.457C202.864 180.045 208.464 176.749 212.675 173.645C219.091 168.693 221.755 163.848 221.416 158.551C221.404 157.835 221.225 157.165 221 156.327C219.653 151.3 215.977 148.334 211.058 146.778M140.667 202.638L146.818 225.596M211.058 146.778L210.076 133.032M211.058 146.778L211.905 160.021M80.0262 204.159C88.3273 203.551 98.3867 202.113 109.532 200.024M80.0262 204.159L69.6714 176.939M109.532 200.024C118.449 198.354 128.116 196.123 138.197 193.421M109.532 200.024L100.477 172.277M138.197 193.421C148.278 190.72 157.766 187.819 166.323 184.807C177.02 181.043 186.451 177.259 193.943 173.635C204.617 168.44 211.078 163.655 211.737 160.066M138.197 193.421L130.654 165.269M212.63 173.477L213.816 192.018C214.336 200.679 184.959 215.376 146.818 225.596M63.9326 213.321L72.1756 229.97M197.414 85.7763L196.245 57.8915C196.144 56.841 196.546 55.6555 197.42 54.8827C198.293 54.1098 199.257 53.6721 200.522 53.6921C203.435 53.8097 205.666 56.0857 205.88 58.9019L206.752 76.2695L209.497 118.1L209.598 119.151M146.818 225.596C108.678 235.815 75.843 237.609 72.0076 230.015M205.938 62.4785C208.851 62.596 212.178 62.2433 215.538 61.3429C218.059 60.6676 220.614 62.1382 221.287 64.6519C221.961 67.1655 220.483 69.7166 217.963 70.3919C213.931 71.4724 210.1 71.9601 206.47 71.8551M14.2282 113.847C11.7644 115.405 8.70671 116.763 5.34632 117.664C2.82603 118.339 1.34862 120.89 2.02213 123.404C2.69565 125.917 5.25069 127.388 7.77098 126.713C11.8034 125.632 15.3652 124.139 18.4561 122.233M21.4168 107.071C27.9884 98.6653 30.6594 86.4549 33.733 73.059C40.0034 46.0546 47.0559 15.2485 87.7166 4.35348M87.7166 4.35348C128.377 -6.54151 149.72 16.6561 168.652 36.9074C178.012 46.9718 186.386 56.0432 196.325 60.205M87.7166 4.35348L90.1861 13.57M196.745 70.5095C183.053 66.4553 172.191 54.8178 161.587 43.4703C143.809 24.1669 125.134 4.20574 90.1861 13.57M90.1861 13.57C55.2381 22.9343 49.046 49.5586 43.1334 75.2099C39.6238 90.339 36.2039 105.803 26.2053 116.205M128.184 156.053L117.408 115.835M168.456 194.114L173.264 217.432M149.902 106.05L158.494 146.853M160.46 156.205L166.491 184.762M120.002 231.703L112.506 209.106M97.5032 163.196L84.5427 123.563M195.663 183.412L199.192 205.994M181.264 94.055L187.918 135.018M189.469 144.84L194.111 173.59M66.1039 167.658L51.385 128.856M107.88 1.64469L110.26 10.5261M68.8999 12.0895L71.2796 20.9709M131.375 6.66428L127.213 15.3231M50.8943 28.2292L58.9968 33.6015M145.518 15.0879L140.84 23.1665M42.8583 42.5955L50.9492 47.2525M158.867 26.5979L154.188 34.6765M37.2209 59.1929L45.3119 63.8499M172.004 40.679L167.326 48.7576M32.7162 78.0011L40.8072 82.6582M184.648 52.9169L179.969 60.9954M27.8856 94.9211L35.9766 99.5781" stroke="url(#paint0_linear)" stroke-width="3" stroke-miterlimit="10" stroke-linecap="round" stroke-linejoin="round"/>
<defs>
<linearGradient id="paint0_linear" x1="87.6326" y1="4.37599" x2="344.088" y2="121.566" gradientUnits="userSpaceOnUse">
<stop stop-color="#F4A261"/>
<stop offset="1" stop-color="#E9C46A"/>
</linearGradient>
</defs>
</svg>
