<svg width="234" height="237" viewBox="0 0 234 237" fill="none" xmlns="http://www.w3.org/2000/svg">
<path d="M67.1343 189.477C62.0153 194.241 58.8381 201.123 58.8381 208.533C58.8381 214.709 60.9562 220.355 64.4866 224.766M64.4866 224.766C69.2525 230.942 76.8427 234.824 85.1389 234.824M64.4866 224.766L6.23638 151.013C3.58864 147.66 2 143.426 2 138.838C2 133.192 4.2947 128.251 8.17805 124.546L117.971 20.4442C119.736 18.8562 121.854 17.974 124.325 18.1505C126.62 18.3269 128.738 19.3856 130.15 21.3265L173.75 76.7298C176.751 80.4352 176.398 85.9049 172.867 89.0809L66.9578 189.477M99.7897 158.423H191.401C195.638 158.423 198.992 161.776 198.992 166.01M198.992 166.01V227.06C198.992 231.471 195.461 235 191.048 235H85.3154M198.992 166.01H219.114M219.114 228.648H198.815M188.048 61.0263L171.985 74.2596M148.155 12.6807L133.151 25.0318M148.155 12.6807L188.048 60.8499C190.342 63.673 194.402 64.0259 197.226 61.7321C199.874 59.6148 200.227 55.3801 198.285 52.557L158.216 4.38785C155.922 1.56475 151.862 1.21186 149.038 3.50563C146.213 5.7994 145.86 9.85761 148.155 12.6807ZM50.3653 172.892L20.1811 134.603M42.4221 183.478L12.2379 145.19M73.1358 151.189L42.9517 112.901M95.9064 129.487L65.7222 91.3747M118.677 107.96L88.6692 69.6721M141.624 86.2578L111.44 47.9695M62.8979 162.834L32.7137 124.723M85.6685 141.308L55.4843 103.02M108.616 119.606L78.4313 81.3174M131.386 97.9031L101.202 59.7912M154.157 76.377L123.972 38.0886M186.282 183.478V217.885M171.985 183.478V217.885M157.863 183.478V217.885M143.566 183.478V217.885M129.268 183.478V217.885M115.147 183.478V217.885M100.849 183.478V217.885M86.7276 211.357V177.656M72.4298 211.18V191.065M225.469 235C221.939 235 218.938 232.177 218.938 228.472V166.01C218.938 162.482 221.762 159.482 225.469 159.482C228.999 159.482 232 162.305 232 166.01V228.648C232 232.177 229.176 235 225.469 235Z" stroke="url(#paint0_linear)" stroke-width="3" stroke-linecap="round" stroke-linejoin="round"/>
<defs>
<linearGradient id="paint0_linear" x1="117" y1="2" x2="338.006" y2="183.8" gradientUnits="userSpaceOnUse">
<stop stop-color="#F4A261"/>
<stop offset="1" stop-color="#E9C46A"/>
</linearGradient>
</defs>
</svg>
