<svg width="224" height="254" viewBox="0 0 224 254" fill="none" xmlns="http://www.w3.org/2000/svg">
<path d="M173.008 29.2257C262.488 62.7074 180.294 213.374 216.953 239.93C216.953 239.93 201.692 252.109 193.659 252.26C185.557 252.596 177.619 241.839 169.425 241.298C161.485 240.642 152.047 250.16 143.946 248.812C135.844 247.464 130.254 235.48 122.244 233.325C114.419 231.239 103.44 238.706 95.7067 235.813C87.9739 232.919 84.5929 220.079 77.3206 216.516C69.8641 212.884 57.5957 218.185 50.7838 213.952C43.7187 209.835 43.0306 196.529 36.495 191.558C29.9595 186.587 16.909 189.491 11.0179 183.919C5.0578 178.532 1.53987 159.326 1.53987 159.326C46.3739 163.474 83.5289 -4.25608 173.008 29.2257ZM173.008 29.2257C160.718 26.7316 147.781 41.6745 147.781 41.6745M173.008 29.2257C173.008 29.2257 192.348 -5.6311 214.994 2.84268C223.832 6.14952 221.758 15.0553 220.653 18.0092C216.854 28.1632 185.461 20.626 180.902 32.8108M120.204 62.0839C123.933 58.849 127.57 56.4215 131.069 54.3632M66.4954 132.698C69.3271 128.496 72.1588 124.294 75.0596 119.907C83.831 106.562 93.2011 92.1789 103.307 79.7546M184.971 62.3252C184.971 62.3252 187.437 44.5164 176.622 30.7882" stroke="url(#paint0_linear)" stroke-width="3" stroke-miterlimit="10" stroke-linecap="round" stroke-linejoin="round"/>
<defs>
<linearGradient id="paint0_linear" x1="186.825" y1="-7.69788" x2="349.658" y2="242.202" gradientUnits="userSpaceOnUse">
<stop stop-color="#F4A261"/>
<stop offset="1" stop-color="#E9C46A"/>
</linearGradient>
</defs>
</svg>
