<svg width="232" height="256" viewBox="0 0 232 256" fill="none" xmlns="http://www.w3.org/2000/svg">
<path d="M155.727 60.7807C162.475 54.4994 169.499 49.9853 176.517 48.2916C182.917 46.8083 188.739 48.1802 194.906 52.4662C208.195 61.6707 214.68 70.3689 215.862 80.6562C216.585 87.058 215.31 94.6174 212.083 103.159M107.384 130.601C103.847 136.802 101.036 141.692 98.6011 145.179L97.6999 146.442C90.0798 157.381 75.9158 178.042 67.2632 197.733C63.5116 206.134 55.815 226.459 64.1964 232.279C77.9635 241.799 85.4677 242.493 97.6794 235.419C113.269 226.239 134.532 204.283 165.38 169.656M125.994 74.4477C135.186 71.6433 161.212 73.9138 177.974 85.5541C199.342 100.309 208.252 128.658 207.355 139.705M138.397 58.9589C154.085 59.2118 172.076 63.4682 186.321 73.305C202.909 84.8984 214.183 103.722 219.124 120.283M93.7339 126.944C107.16 125.838 126.415 128.176 141.441 138.598C158.682 150.554 167.898 171.46 170.3 184.896M102.261 111.921C117.901 112.349 135.542 116.512 149.788 126.349C165.769 137.404 176.882 155.431 182.092 171.689M107.613 102.444C107.447 91.8648 106.944 80.4426 105.822 69.2308C105.193 62.478 104.12 55.9824 102.65 49.5686C96.9841 21.7133 83.9651 -0.399243 56.1444 1.92861C25.4166 4.60621 3.99443 18.0547 2.25116 62.3607M2.25116 62.3607C1.95806 69.0546 2.17684 76.6381 2.77953 84.8889M2.25116 62.3607C14.8107 50.4881 34.0333 39.6484 54.1955 37.9022C71.4505 36.5057 89.1595 41.8152 102.872 49.44M2.77953 84.8889C3.76067 96.6272 5.76557 110.145 8.84126 125.266M2.77953 84.8889C7.52637 74.8734 29.4166 54.778 55.2992 52.6833C75.6364 50.984 95.2047 60.5541 105.869 69.0553M8.84126 125.266C8.87516 125.84 9.08407 126.46 9.16501 126.858C28.1179 219.225 37.8688 247.235 68.0137 250.233M8.84126 125.266C21.4347 113.967 39.8972 103.864 59.4873 102.153C74.6292 100.943 90.1233 104.718 102.893 110.962M86.9523 42.3525C84.2496 33.539 80.4236 26.1177 75.1922 21.1416C70.3917 16.6573 64.6637 14.9343 57.1803 15.5629C41.0693 16.8896 31.1042 21.18 24.9365 29.4979C21.1095 34.6805 18.4342 41.8648 16.9577 50.8753M93.9089 126.99C93.9559 126.815 94.0029 126.639 93.8279 126.592M24.2019 131.64C32.8077 172.323 39.5235 200.459 47.2771 217.022M12.4496 142.6C15.4093 139.254 19.2571 135.394 24.1549 131.815C33.7755 124.611 46.5461 118.25 60.5439 117.11C72.4286 116.156 84.2477 118.946 93.9745 123.246C94.4995 123.386 94.9775 123.702 95.5025 123.843M202.62 41.1766C237.579 65.4057 246.713 98.5171 180.84 172.858C109.68 252.932 90.533 266.99 56.5293 243.393C27.2582 223.134 72.4277 158.859 87.4459 137.11C102.417 115.537 150.722 5.26032 202.62 41.1766Z" stroke="url(#paint0_linear)" stroke-width="3" stroke-miterlimit="10" stroke-linecap="round" stroke-linejoin="round"/>
<defs>
<linearGradient id="paint0_linear" x1="130.048" y1="19.0874" x2="301.769" y2="252.177" gradientUnits="userSpaceOnUse">
<stop stop-color="#F4A261"/>
<stop offset="1" stop-color="#E9C46A"/>
</linearGradient>
</defs>
</svg>
