<svg width="215" height="239" viewBox="0 0 215 239" fill="none" xmlns="http://www.w3.org/2000/svg">
<path d="M70.6517 70.7057L73.2516 61.0025M73.2516 61.0025L81.1496 31.5267C82.1798 27.6821 82.2502 23.7764 81.4448 20.2248C80.6884 16.4901 78.8741 13.0606 76.4993 10.2658C73.543 6.72659 69.3817 4.04177 64.6457 2.77278C51.762 -0.875633 38.8634 6.4605 35.4295 19.276L34.2522 23.6699M73.2516 61.0025C83.508 65.7129 95.4179 70.0815 108.119 73.6811C109.212 73.9739 110.123 74.218 111.216 74.5108C111.945 74.706 112.673 74.9013 113.402 75.0965M40.6115 51.6679C35.3013 46.713 32.0929 41.9289 31.5328 37.4618M40.6115 51.6679C45.158 55.8295 51.2109 60.1985 58.5038 64.3111C62.2168 66.4833 66.3432 68.5701 70.7007 70.5226C81.8188 75.6601 94.6394 80.2728 108.665 84.0309C109.394 84.2262 110.122 84.4214 110.851 84.6166M40.6115 51.6679L48.3623 22.7414C48.4604 22.3752 48.5585 22.0091 48.6566 21.6429C50.5276 16.8462 55.7963 13.941 60.8966 15.3076C63.4467 15.9909 65.5694 17.5408 66.7673 19.6278C68.2804 21.9955 68.8196 25.0833 68.0347 28.0126L58.2726 64.4453M164.339 31.4477L166.89 21.9276C170.275 9.29509 183.222 1.77588 195.791 5.14359C208.359 8.51131 215.813 21.497 212.428 34.1294L203.107 68.9145M164.339 31.4477C161.936 30.2151 159.119 29.0681 156.485 27.9698M164.339 31.4477C168.696 33.4002 172.823 35.487 176.536 37.6592C183.829 41.7718 189.881 46.1408 194.428 50.3024M176.354 37.6104L179.689 25.161C181.161 19.6686 186.759 16.263 192.406 17.7761C197.87 19.2403 201.247 24.8544 199.726 30.5298L194.428 50.3024M194.428 50.3024C201.448 56.8926 204.81 63.2878 203.338 68.7802M43.1624 42.1478C47.7089 46.3094 53.7618 50.6784 61.0547 54.791M176.56 82.0123C187.973 80.9497 196.402 77.9101 200.557 73.3329C201.678 72.0635 202.385 70.8795 202.96 69.4637L151.608 222.494C146.577 237.629 110.138 241.012 69.5185 230.128C28.8986 219.244 -0.966278 198.095 2.24366 182.472L6.67315 160.112M117.631 15.5966C120.595 16.1944 123.509 16.9753 126.423 17.7563C130.613 18.8788 134.753 20.1845 138.712 21.4413M98.8413 12.1317C90.7634 10.9483 83.3161 10.3264 76.184 9.98515M34.2871 24.268C34.3362 24.0849 34.3853 23.9018 34.4343 23.7188M110.851 84.6166C134.944 90.8761 157.601 93.0226 174.058 91.3494C177.681 90.9464 181.121 90.4945 184.063 89.7132C190.957 88.0284 195.946 85.4406 198.615 82.0352M110.851 84.6166L113.451 74.9134C112.673 74.9013 98.9929 44.353 132.145 53.2359C174.222 64.5105 176.609 81.8293 176.609 81.8293L174.009 91.5325M6.67315 160.112L9.68687 145.222M6.67315 160.112C10.1469 175.564 38.779 194.028 76.3023 204.082C113.826 214.136 147.854 212.462 158.588 200.818M9.68687 145.222L22.2323 83.8295M9.68687 145.222C10.5474 160.954 40.1111 181.041 79.6381 191.633C119.165 202.224 154.763 199.793 163.605 186.464M22.2323 83.8295L25.5894 67.6576L31.7149 37.5107L33.1657 30.6391L34.4693 24.3168M22.2323 83.8295C24.8653 100.233 55.3888 120.381 96.0087 131.265C136.629 142.149 173.319 140.011 183.619 127.073M25.4072 67.6087C23.4092 84.5373 55.628 107.102 99.3445 118.816C142.879 130.481 182.064 127.049 188.98 111.438M110.194 65.2106C113.41 61.9517 119.295 60.389 129.496 63.1222C159.418 70.9436 170.367 85.4546 171.214 86.6628C173.127 89.7262 173.96 91.7155 173.96 91.7155M132.306 234.786L139.125 209.338M161.739 124.939L170.619 91.8012M142.46 196.889L158.355 137.571M105.921 236.35L112.887 210.353M135.698 125.221L144.823 91.1684M116.272 197.72L132.313 137.854M91.2609 194.158L107.351 134.108M110.736 121.476L119.959 87.057M81.1553 231.873L87.876 206.791M67.0346 187.667L83.174 127.434M86.5098 114.984L95.7814 80.3825M56.9291 225.381L63.6988 200.116M33.3406 216.51L40.3066 190.513M63.0685 105.564L72.242 71.328M43.6424 178.063L59.7327 118.013M11.371 201.597L18.1898 176.149M40.7555 91.9323L49.5856 58.9781M21.5256 163.699L37.4197 104.382M146.473 42.7508C135.908 39.92 150.075 20.5618 129.128 14.9489C105.812 8.70155 110.469 37.2244 99.1758 34.1984C86.7895 30.8795 103.803 -4.19905 132.218 3.41492C157.72 10.248 159.952 46.3626 146.473 42.7508Z" stroke="url(#paint0_linear)" stroke-width="3" stroke-miterlimit="10" stroke-linecap="round" stroke-linejoin="round"/>
<defs>
<linearGradient id="paint0_linear" x1="134.223" y1="-11.3533" x2="305.658" y2="161.623" gradientUnits="userSpaceOnUse">
<stop stop-color="#F4A261"/>
<stop offset="1" stop-color="#E9C46A"/>
</linearGradient>
</defs>
</svg>
