<svg width="221" height="237" viewBox="0 0 221 237" fill="none" xmlns="http://www.w3.org/2000/svg">
<path d="M123.498 26.8279C109.689 2.90936 78.9387 -5.47046 54.854 8.43485C30.9354 22.2443 22.5556 52.9941 36.4609 77.0788L63.4085 123.753L21.5073 111.403M104.357 194.679L83.1636 157.97M208.343 173.4C208.343 173.4 228.517 200.287 214.066 208.63M208.343 173.4L201.034 177.619M208.343 173.4L123.664 26.7321M201.034 177.619L102.204 234.679L67.105 173.886L9.47138 138.505C7.41989 137.254 5.6749 135.382 4.42822 133.223C0.304574 126.08 2.76167 116.91 9.90403 112.787C13.5583 110.677 17.7434 110.254 21.6734 111.307M201.034 177.619L192.065 182.798C192.065 182.798 198.453 217.645 212.904 209.302M200.383 159.613L94.2443 220.892M162.169 147.127L121.474 170.622M114.573 111.488L135.217 126.146L145.229 103.977L155.36 135.334L114.665 158.829L92.7405 134.281L116.945 136.694L114.573 111.488Z" stroke="url(#paint0_linear)" stroke-width="3" stroke-miterlimit="10" stroke-linecap="round" stroke-linejoin="round"/>
<defs>
<linearGradient id="paint0_linear" x1="30.9542" y1="22.2334" x2="255.313" y2="11.7967" gradientUnits="userSpaceOnUse">
<stop stop-color="#F4A261"/>
<stop offset="1" stop-color="#E9C46A"/>
</linearGradient>
</defs>
</svg>
