<svg width="274" height="256" viewBox="0 0 274 256" fill="none" xmlns="http://www.w3.org/2000/svg">
<path d="M22.2473 81.7891L8.79353 92.2936C0.639704 98.66 -0.803386 110.259 5.54658 118.392L105.559 246.484C112.226 255.024 124.554 256.525 133.116 249.84L241.969 164.849C246.997 160.924 249.547 155.224 249.543 149.336M105.688 16.64L119.142 6.13554C127.296 -0.230824 138.899 1.18234 145.249 9.31516L209.913 92.1344M89.2446 29.4789L38.6909 68.9503M132.275 159.953L36.6491 113.962C28.8969 110.197 23.7255 102.453 23.0857 93.789L22.4602 84.0229L21.3164 66.5889C20.6152 56.4456 25.0204 46.6789 33.0383 40.4187L62.9357 17.0753C70.9536 10.8151 81.4971 8.9101 91.1675 12.0504L107.804 17.3883L117.126 20.3636C125.512 22.9795 131.635 29.9808 133.408 38.4147L153.591 136.546M132.275 159.953L102.356 51.3142C98.4797 37.1045 88.2753 25.4358 74.4942 19.8323L64.5664 15.8021M132.275 159.953L140.057 188.131M122.176 123.765L56.6944 86.9658C43.8491 79.7591 34.8978 66.8938 32.9097 52.3008L31.4076 41.6919M165.834 195.931L170.819 219.966M165.834 195.931L198.45 170.466M165.834 195.931L146.265 211.21M155.667 146.488L160.985 171.79M160.985 171.79L189.931 149.19M160.985 171.79L140.057 188.131M140.057 188.131L90.1827 227.071M146.265 211.21L152.609 234.184M146.265 211.21L103.729 244.422M210.204 123.325C195.702 125.484 186.424 121.165 180.513 114.434C167.633 99.6187 170.622 72.6303 170.622 72.6303C170.622 72.6303 198.391 76.2576 209.309 93.0422M210.204 123.325C204.047 110.677 205.038 100.74 209.309 93.0422M210.204 123.325C220.501 113.54 230.077 111.517 238.689 113.302C258.301 117.408 271.942 141.883 271.942 141.883C271.942 141.883 247.13 154.929 228.423 147.499M210.204 123.325C222.49 130.096 227.435 138.671 228.317 147.364C230.369 167.362 211.029 187.698 211.029 187.698C211.029 187.698 191.031 167.967 192.665 147.928M210.204 123.325C218.144 137.416 211.84 154.556 211.84 154.556M209.309 93.0422C219.087 75.5892 246.654 69.9926 246.654 69.9926C246.654 69.9926 251.566 97.5755 238.719 113.06M189.599 100.577C189.599 100.577 195.515 115.158 207.591 123.62M228.466 94.8847C228.466 94.8847 209.471 111.461 209.599 122.27M240.65 132.062C240.65 132.062 223.601 119.192 210.068 123.431C207.357 137.329 200.564 144.597 192.529 148.034C174.345 156.123 149.109 143.972 149.109 143.972C149.109 143.972 161.557 119.853 180.619 114.57M178.456 133.932C178.456 133.932 199.017 135.332 208.437 124.704" stroke="url(#paint0_linear)" stroke-width="3" stroke-miterlimit="10" stroke-linecap="round" stroke-linejoin="round"/>
<defs>
<linearGradient id="paint0_linear" x1="64.7023" y1="15.6959" x2="340.41" y2="20.2365" gradientUnits="userSpaceOnUse">
<stop stop-color="#F4A261"/>
<stop offset="1" stop-color="#E9C46A"/>
</linearGradient>
</defs>
</svg>
