<svg width="245" height="217" viewBox="0 0 245 217" fill="none" xmlns="http://www.w3.org/2000/svg">
<path d="M100.926 98.9337C100.926 98.9337 105.487 102.038 106.035 105.873C106.582 109.708 103.298 114.091 103.298 114.091M105.487 127.606L103.115 127.971H102.933C99.284 128.519 95.8175 130.162 93.0807 132.354C86.8775 137.102 83.5934 144.955 84.8706 153.173C85.7828 158.651 88.702 163.4 92.5334 166.687C93.6281 167.6 94.7228 168.331 95.9999 169.061C96.5473 169.426 97.0946 169.609 97.6419 169.792C99.4664 170.522 101.291 171.07 103.298 171.435M103.298 171.435C105.487 171.8 107.859 171.8 110.048 171.435L232.106 150.799M103.298 171.435C91.8036 173.809 84.1408 184.767 85.9653 196.455C86.8775 201.751 89.6142 206.316 93.4456 209.603M232.106 150.799L232.836 150.616C238.674 149.703 242.688 144.042 241.776 138.198C240.864 132.354 235.208 128.336 229.37 129.249L106.582 150.068C106.399 150.068 106.217 149.886 106.217 149.703C106.217 149.52 106.217 149.338 106.399 149.338L231.377 128.884C237.215 127.971 241.229 122.309 240.316 116.465C239.404 110.622 233.748 106.604 227.91 107.517L198.718 112.265H198.353M232.106 150.799C236.85 151.347 240.681 154.999 241.411 159.747C242.323 165.591 238.31 171.252 232.471 172.166L107.494 192.619C107.312 192.619 107.312 192.802 107.312 192.985C107.312 193.167 107.494 193.35 107.677 193.35L230.464 172.713C236.303 171.8 241.958 175.818 242.871 181.662C243.783 187.506 239.769 193.167 233.931 194.08L111.143 214.717C106.764 215.447 102.568 214.717 98.7366 213.073C98.0068 212.708 97.4595 212.525 96.9122 212.16C95.8175 211.43 94.5403 210.517 93.4456 209.603M101.108 142.946C101.108 142.946 105.67 146.05 106.217 149.886C106.764 153.721 103.48 158.104 103.48 158.104M93.4456 209.603L10.4317 138.928C6.78272 135.824 4.22845 131.623 3.3162 126.51C1.85662 116.831 7.33007 107.517 16.27 104.047M102.021 186.045C102.021 186.045 106.582 189.15 107.129 192.985C107.677 196.82 104.393 201.203 104.393 201.203M235.573 65.331L143.436 3.7869C143.072 3.42165 142.707 3.23903 142.342 3.0564C142.159 3.0564 142.159 2.87378 141.977 2.87378C140.335 2.14329 138.328 1.77804 136.321 2.14329L19.5541 21.3187H19.3716C8.24231 23.145 0.579481 33.7371 2.22152 44.8771C3.13376 50.1732 6.05293 54.5562 9.88434 57.6608L16.8174 63.1395M92.8983 123.04L16.8174 63.1395M16.8174 63.1395C7.14762 66.0615 0.761929 75.9231 2.40396 86.15C3.3162 91.2635 5.87048 95.6464 9.70189 98.751L16.27 104.047M92.7158 166.687L16.27 104.047M147.815 98.5684C147.815 98.751 147.633 98.9336 147.45 99.1163M232.836 106.604L198.901 112.265H198.536L110.231 127.24C108.771 127.423 107.312 127.606 105.852 127.423C103.115 127.24 100.379 126.692 97.8244 125.597C97.277 125.414 96.9121 125.231 96.3648 124.866C95.2701 124.318 94.1754 123.588 93.0807 122.675C88.8844 119.387 85.9653 114.639 85.053 108.978C84.1408 102.769 85.7828 96.7422 89.2493 92.1766C92.5334 87.7936 97.4595 84.689 103.115 83.7759H103.298L228.092 63.3221C230.282 62.9569 232.289 63.3221 234.296 64.0526C234.478 64.0526 234.478 64.2352 234.661 64.2352C235.025 64.4178 235.573 64.6005 235.938 64.9657C238.31 66.6093 240.134 69.1661 240.681 72.2706C241.594 78.1146 237.58 83.7759 231.741 84.689L148.363 98.3858L106.399 105.325C106.217 105.325 106.035 105.508 106.217 105.691C106.217 105.873 106.399 106.056 106.582 106.056L229.37 85.2369C235.208 84.3238 240.864 88.3415 241.776 94.1854C242.688 100.212 238.674 105.691 232.836 106.604Z" stroke="url(#paint0_linear)" stroke-width="3" stroke-miterlimit="10" stroke-linecap="round" stroke-linejoin="round"/>
<defs>
<linearGradient id="paint0_linear" x1="122.5" y1="2" x2="328.044" y2="195.804" gradientUnits="userSpaceOnUse">
<stop stop-color="#F4A261"/>
<stop offset="1" stop-color="#E9C46A"/>
</linearGradient>
</defs>
</svg>
